<svg class="absolute text-gray-800 mt-8 top-0 left-0 w-20 hidden md:block" xmlns="http://www.w3.org/2000/svg" width="164.6" height="148.6" style="enable-background:new 0 0 164.6 148.6" xml:space="preserve"><g fill="currentColor"><path d="M0 85.4c7.4-18 34.4-62.5 56.7-74.1 14 3.9-13.5 18.8-27.5 41.1-6 8.4-10.9 16.3-16.1 26.1C10.9 82.9 6 96 0 85.9v-.5zM98.3 87.2c-4.5 9.7-14.5 17.1-20.9 27.5-8.6 10-14 23.5-23.2 33.9-17.4 1.4 12.2-32.2 15.7-39 2.7-1.4 24.7-39.3 28.4-22.4zM108.8 31.1C101.3 42.3 88 51 79 63.4c-4.7 3.7-10.6 17.5-16.7 17-12.9-2.1 13-25 18.1-32.3 4.5-3.2 25.3-32.4 28.4-17zM125.9 88.2c-13.5-4.1 7.5-16.4 14.2-23.5 5.8-3.4 17.6-20.1 23.4-13.9 5.2 5.8-10 12.7-15.3 18.8-7.3 5.3-13.4 14.3-22.3 18.6zM37.3 74.1c-11.9-2.7 2.5-17.1 7-24.1 3.2-2.7 13.2-19.2 18.6-11.1 3.4 4.9-8.7 11.6-12.2 17.7C45.8 61 44 70.8 37.3 74.1zM102.2 110.4c-1.6 5.8-7.8 10-11.4 16.2-2.7 3.5-5.4 11.3-11.2 6.2-4-5.8 5.1-11.4 9.2-18.5 3-3.9 10.8-15.1 13.4-3.9zM112.7 62.5c-14.9-4 11.4-19.9 17.7-24.3 4.7-1.6 7.9 6.3 2.6 8.9-7.3 3.9-12.5 11.6-20.3 15.4zM86.3 20.9C73.3 17 93.8 5 99.2 0c8.5.5 5.4 8.3-1 12.6-3.5 2.8-6.6 6.7-11.9 8.3zM36.9 115.9c-11-1 .8-16.7 5.4-21.3 10-2.2 6.4 7.4 1.8 12.3-2.3 2.8-2.6 8-7.2 9z"/></g></svg>
