<svg xmlns="http://www.w3.org/2000/svg" fill="none" viewBox="0 0 256 256"><g clip-path="url(#a)"><rect width="256" height="256" rx="48" fill="#100f0f"/><path d="M83.883 45.259A79.999 79.999 0 0 1 208 112c0 31.147-5.931 60.896-16.725 88.192M61.248 67.882A79.627 79.627 0 0 0 48 112a79.616 79.616 0 0 1-12.267 42.592m21.216 37.963A119.564 119.564 0 0 0 88 112a40 40 0 1 1 80 0c0 5.621-.224 11.189-.683 16.693M128 112a159.361 159.361 0 0 1-38.4 104m70.752-49.024a199.097 199.097 0 0 1-26.507 56.853" stroke="#100F0F" stroke-width="10" stroke-linecap="round" stroke-linejoin="round"/></g><defs><clipPath id="a"><path d="M0 0h256v256H0z"/></clipPath></defs><style>path{stroke:#fffcf0}@media (prefers-color-scheme:dark){rect{fill:#fffcf0}path{stroke:#100f0f}}</style></svg>
