<svg xmlns="http://www.w3.org/2000/svg" fill="none" viewBox="0 0 256 256"><g fill-rule="evenodd" clip-path="url(#a)" clip-rule="evenodd"><path fill="#fff" d="m34 189 180 14v1l4 40c0 7 3 18 7 34l-191 1-3-46 3-44Zm106-98c8 1 15 4 16 6 1 4 3 23 10 26 6 3 21 1 25 7 4 7 17 36 17 43 0 4-44 6-131 4 1-35 6-54 14-56h1c11-3 19-3 23-7s4-12 6-17c1-3 10-6 19-6Z"/><path fill="#000" d="m156 102 1 2 1 2 2 5a69 69 0 0 0 4 7l1 2h-1l1-1c1-1 21 4 26 9 10 9 16 21 21 34l6 21 8 22-2 4-9 2c2 5 3 11 3 16l4 32 2 7v1l1 4 2 4-2 3h-3v-1a8 8 0 0 1-1-1 80 80 0 0 1-1-5v-1l-3-7-3-27v-24l-3 1h-3l-2 1h-4a940 940 0 0 0 6 59v6l-1 1a2 2 0 0 1-3-1h-13l-15 1h-53l-27 1a544 544 0 0 1-20-1h-5l-2 1c-2-2-2-5-2-8l-1-1a249 249 0 0 1 1-60v-8l-4-1a203 203 0 0 1-15-4h-1a67 67 0 0 1-13-5v9l-1 8a418 418 0 0 0 3 58l1 8c0 3-4 4-4 1l-2-9v-1a220 220 0 0 1 0-60l1-7v-1l1-7-1-1-1-2 3-12a108 108 0 0 1 30-44c5-5 11-9 18-13a43 43 0 0 1 16-4l5 1 1 1v2l5 7c1 3 3 5 6 7 9 7 21 10 32 7 8-2 15-9 17-17h-1c-3-1-3-3-4-5v-1a45 45 0 0 1-3-12v-5Zm-35-5c2 4 1 9-1 13a26 26 0 0 1-9 11c-3 2-6-4-3-5 4-2 7-5 9-8l2-5 2-6Z"/><path fill="#fff" d="M180 62V47c1-4-1-19-5-17-5-5-13-6-20-6-14-1-30 1-41 11-6 5-11 12-11 20-5 7-12 17-6 26 2 3 6 4 8 6 6 4 9 10 15 15 14 13 39 16 53 1 11-11 10-27 8-41-2-9 0 9-1 0Z"/><path fill="#000" d="m136 4 12-2c3 1 7 1 9 3a1 1 0 0 1 1-1l10 4 10 2c1 0 2 2 1 3v1h1l2 2v2h1c2 1 2 3 1 5l-2 6 2 5 1 4v1l-2 4a2 2 0 0 1-2 1l1 10v2l1 24a30 30 0 0 1-35 33l-5-1-5-4 1-2 6 1a26 26 0 0 0 16 0c6-1 11-6 15-11 3-6 4-13 4-20l-1-23v-2a1450 1450 0 0 1-1-15l-4-4-5 2h-11a34 34 0 0 1-4 2l-8 3h-1l-5 1h-5c-1 0-2-1-1-3l1-2a54 54 0 0 1-12 3l-4 1-2 1-2 2a69 69 0 0 0-3 18v6c0 2-2 2-3 1a17 17 0 0 1-3-3c-2-2-5-4-7-1l-2 3v1l-1 4c0 3 0 6 2 8l3 1h3c1 0 2 1 1 2v2l2 1v2h1v1l5 6 5 5h1c1 1 3 3 2 6l-1 1-5-6-5-5-3-5-2 1-3-2-1 1c-2 0-3-2-2-3l1-3-5-2c-3-3-3-8-3-12a30 30 0 0 1 3-7h-1l-1-2-1-3-1-5V42c1-6 3-12 6-17v-4l1-1a2 2 0 0 1 0-2c1-2 4-2 7-1l8-6c7-3 15-6 23-7ZM99 68c2-1 3 0 4 1l4 2 1 3-2 1c-2 0-2-1-3-2h-1l-1 1-1-1-1-2 1-1-1-1a1 1 0 0 1 0-1Z"/><path fill="#000" d="m155 93-4-3-1-2a2 2 0 0 1 3-2l1 1 3 2 3 1c2 0 3-1 5-3l1-1a1 1 0 0 1 1 1l-2 4-5 3-5-1Zm6-24c2 1 5 4 3 7-3 2-6-1-8-2-1-1-3 1-2 3 13 9 18-8 8-10l-1 2Zm-22-11c0-2 4-3 5 0 0 2 0 4-2 6 0 2-3 1-3-1v-5Zm30-1 2-1c3 1 3 5 2 7-1 1-3 2-4 1-1-2-2-5 0-7Zm-27-10h1c1 0 3-1 4 1v2l-4 1h-4l-7 4v-1l6-6 4-1Zm24-1h1c4 1 9 2 11 6v1h-1l-2-1h-1l-2-1-6-1-1-1-1-1v-1l1-1h1Z"/><path fill="#000" d="M139 95c2-5 6-9 11-10h12l6 1 4 3a18 18 0 0 1 2 6c0 2 0 3-2 4l-4 1h-1c-2-1-4-5-7-4-3 0-5 4-6 6-6 0-11-1-15-4v-3Zm39-4-1-3c-3-4-6-7-10-9-9-3-20-1-28 6l-6 8v1l-15-11-7-12h-1v17c0 3 1 5 3 8l7 7 5 5 7 3a90 90 0 0 0 22 6c4 0 9 1 13-1 3-1 5-3 7-6l5-9c1-3-1-9-1-10Z"/></g><defs><clipPath id="a"><path fill="#fff" d="M0 0h256v256H0z"/></clipPath></defs></svg>
