<svg xmlns="http://www.w3.org/2000/svg" viewBox="0 0 201 257"><defs/><g fill="#000" fill-rule="evenodd"><path fill="#FFF" d="M5.922 188.933l179.748 14.248.189 1.22c3.012 19.585 4.533 32.873 4.564 39.862v.214c0 6.93 2.131 17.952 6.393 33.066l.263.93-191.408.333-2.258-45.492 2.509-44.38zm106.415-97.617c7.31.36 14.675 3.489 15.244 5.488 1.267 4.453 3.305 23.515 10.006 26.443 6.7 2.929 21.006.259 25.096 7.252 4.09 6.994 17.523 35.503 17.523 42.146 0 4.428-43.775 5.965-131.323 4.611 1.118-35.67 5.777-54.42 13.979-56.251l.732-.162c11.86-2.587 18.949-2.67 22.995-6.84 4.129-4.255 4.878-11.56 6.59-17.199.944-3.107 10.19-5.93 19.158-5.488z"/><path class="fill-current" d="M128.366 102.465c.027-.021.055-.028.085-.013.57.273.687.82.883 1.388.286.831.617 1.643.923 2.467.61 1.653 1.192 3.304 1.872 4.93.697 1.673 1.42 3.316 2.248 4.932.399.781.828 1.548 1.264 2.31.301.528.582 1.254.978 1.75.03-.158.073-.308.123-.448a1.472 1.472 0 00-.15.083c-.1.062-.22-.063-.16-.16.215-.356.496-.597.817-.76.888-.984 20.464 3.714 25.816 8.99 9.692 9.557 16.234 21.372 20.537 33.942 2.376 6.936 4.563 13.94 6.824 20.913 2.388 7.374 4.882 14.716 7.275 22.086.525 1.62-.62 3.093-2.064 3.627a183.237 183.237 0 01-8.139 2.79c1.327 5.088 2.255 10.283 2.923 15.493 1.377 10.743 1.55 21.705 3.72 32.336.499 2.44 1.13 4.845 1.795 7.244l.155.553c.396 1.408.758 2.828 1.244 4.206.419 1.185.96 2.38 1.254 3.602.344 1.438-.163 3.008-1.51 3.747-1.081.594-2.63.348-3.281-.766a1.936 1.936 0 01-.246-.727 7.976 7.976 0 01-.269-.638 4.221 4.221 0 01-.085-.259l-.078-.26a79.997 79.997 0 01-.542-1.874 98.052 98.052 0 00-.892-3.001l-.161-.498a105.584 105.584 0 01-2.108-7.254c-2.2-8.766-2.666-17.842-3.27-26.826l-.031-.465c-.547-8.05-.873-16.084-.204-24.117l-.091.03-.092.028c-.87.265-1.743.526-2.619.779-.027.01-.053.02-.08.027-.56.174-1.136.338-1.722.491l-.353.09-.248.068-.262.074c-.83.24-1.675.517-2.536.49a27.997 27.997 0 01-4.3.37c.44 7.167.946 14.328 1.55 21.482.608 7.192 1.413 14.356 2.249 21.52.411 3.54.853 7.071 1.34 10.598.245 1.789.501 3.567.827 5.34.336 1.814.931 3.753.572 5.586a.073.073 0 00-.022-.005c-.12.531-.442 1.007-1.001 1.335-1.026.6-2.462.248-3.051-.799a4.606 4.606 0 01-.143-.27c-.604.258-1.267.358-2.08.366l-11.024.11c-5.01.05-10.02.103-15.032.175-15.738.232-31.475.499-47.213.69l-5.901.067c-8.851.092-17.707.275-26.558.273-4.428 0-8.851-.015-13.28-.123a392.429 392.429 0 01-6.427-.223l-.378-.017c-1.71-.085-3.527-.243-5.2.14-.46.896-1.64 1.082-2.257.165-1.41-2.098-1.795-5.024-2.056-7.588l-.092-.924a248.69 248.69 0 01-.73-8.624c-.667-10.197-.91-20.405-.604-30.622.155-5.208.635-10.386 1.202-15.563.178-1.616.363-3.229.564-4.84l.003-.572c0-.183 0-.358-.006-.522l-.05-1.554c-.041-1.296-.08-2.592-.096-3.888l-.007-.778-.007-1.448c-1.24-.117-2.562-.528-3.63-.726a202.126 202.126 0 01-5.186-1.04 158.309 158.309 0 01-10.259-2.587l-.72-.207c-3.13-.9-6.304-1.86-9.265-3.207-1.159-.529-2.315-1.125-3.331-1.907-.06.822-.153 1.641-.208 2.455-.11 1.61-.241 3.216-.35 4.827l-.102 1.533c-.17 2.553-.322 5.104-.391 7.665-.306 11.172-.36 22.391.233 33.556.293 5.588.712 11.176 1.317 16.742.296 2.738.61 5.484.996 8.211.399 2.803 1.119 5.589 1.34 8.412.21 2.723-3.96 3.118-4.644.629-.82-2.986-1.03-6.207-1.461-9.276l-.05-.34c-.479-3.262-.862-6.536-1.194-9.815a221.877 221.877 0 01-.84-34.029c.285-5.437.961-10.853 1.779-16.232l.095-.62c.372-2.41.721-4.82 1.143-7.218l.162-.899c.378-2.061.67-4.303 1.284-6.365l-.183-.168c-.341-.318-.711-.685-.98-1.082-.93-.125-1.72-.791-1.622-2 .319-3.976 1.774-8.02 3.071-11.771a108.349 108.349 0 014.524-11.082c6.018-12.677 14.686-24.187 25.286-33.408 5.622-4.892 11.784-9.23 18.592-12.319 3.357-1.525 6.83-2.705 10.467-3.341 1.802-.316 3.62-.561 5.452-.614 1.486-.876 3.25-.507 4.688.453l.079.053h.002l.369.073c.09.017.088.16 0 .18a.047.047 0 00-.018.005c.236.185.46.383.668.596.687.701.685 1.548.33 2.232 2.106 1.949 3.435 4.451 4.828 6.974a24.299 24.299 0 005.825 7.003c8.718 7.22 21.54 10.413 32.464 7.004 8.033-2.505 14.895-9.286 16.792-17.45a2.06 2.06 0 01-1.398.02c-2.168-.77-2.994-3.136-3.823-5.114l-.04-.095a44.597 44.597 0 01-2.028-5.872c-.541-2.029-.86-4.17-.993-6.265-.051-.828-.029-1.655.014-2.483l.038-.685c.03-.62.02-1.254.543-1.663zM93.094 96.88c.03-.075.148-.115.194-.025 1.919 3.953.66 9.368-1.155 13.138-1.899 3.943-4.759 6.934-8.148 9.521-.467.356-.946.707-1.433 1.05-2.827 1.994-5.346-3.382-2.082-4.409 3.402-1.726 6.167-4.802 8.088-8.033 1.04-1.746 1.96-3.564 2.665-5.473.702-1.904 1.124-3.885 1.871-5.769z"/><path fill="#FFF" d="M152.067 62.237c-.54-4.738.159-14.64.205-15.243.296-3.803-1.489-18.823-4.863-17.44-5.66-4.473-13.2-5.461-20.25-5.933-14.642-.98-30.22 1.27-41.527 11.11C80.04 39.84 74.596 47.27 75.033 55.01c-5.08 7.335-12.243 17.396-5.912 25.971 2.151 2.74 5.571 3.76 8.274 5.835 5.437 4.378 8.848 10.662 14.337 15.015 14.541 13.046 39.232 15.771 53.518.932 11.048-10.747 9.262-26.825 7.318-40.526-1.306-9.21.552 9.244-.501 0z"/><path class="fill-current" d="M107.598 3.528c3.917-.789 7.938-1.28 11.937-1.132l.309.012c3.009.12 6.82.386 9.445 2.133a.543.543 0 01.614-.124c3.12 1.487 6.55 2.561 9.835 3.63a44.537 44.537 0 0010.088 2.047c1.29.106 2.392 1.496 1.576 2.743-.194.297-.383.597-.572.898.315-.033.63-.067.946-.099 1.037-.104 2.072 1.001 2.011 2.01-.038.633-.107 1.26-.208 1.878.395-.008.787.051 1.167.211 1.92.81 1.787 3.094 1.643 4.832-.2 2.412-1.103 4.967-2.78 6.772 1.252 1.298 2.139 2.85 2.668 4.691.383 1.346.597 2.778.491 4.179l-.033.419c-.13 1.52-.39 3.202-1.484 4.295a2.335 2.335 0 01-1.915.704c.4 3.502.655 7.023.896 10.533l.113 1.677c.537 8.11.941 16.275.835 24.399-.098 7.592-1.6 14.961-6.264 21.126-4.248 5.613-10.346 9.752-17.246 11.325-3.718.849-7.513.909-11.277.368-1.824-.263-3.66-.666-5.391-1.303-1.917-.706-3.294-1.746-4.584-3.304-.61-.739-.316-2.312.898-2.164 1.837.222 3.514.49 5.275 1.033l.252.08c1.754.56 3.57.979 5.404 1.157 3.756.363 7.57-.003 11.167-1.14 5.858-1.854 10.903-5.984 14.137-11.175 3.839-6.152 4.273-13.135 4.217-20.209a511.853 511.853 0 00-.725-23.283l-.07-1.292c-.218-3.99-.43-7.984-.615-11.976a47.347 47.347 0 00-.303-3.765c-1.448-.847-2.745-2.014-3.59-3.454-1.699.7-3.485 1.207-5.128 1.61-3.807.935-7.76 1.162-11.635.577a34.42 34.42 0 01-3.193 1.136c-.293.13-.585.257-.877.381-2.61 1.115-5.257 2.06-8.01 2.75l-.678.17c-1.45.356-3.024.707-4.566.818-.254.097-.527.18-.826.253-1.405.34-2.863.448-4.302.328-1.403-.118-2.417-1.533-1.644-2.858.565-.967 1.134-1.932 1.709-2.894-2 .832-4.064 1.523-6.147 2.11-2.102.59-4.235 1.09-6.37 1.548-1.141.243-2.288.458-3.427.701-.815.173-2.067.263-2.732.799-.735.589-.943 1.961-1.222 2.808a68.617 68.617 0 00-2.556 10.097 64.605 64.605 0 00-.81 6.914c-.148 2.314-.083 4.644-.321 6.948-.129 1.223-1.443 1.851-2.414.997a38.53 38.53 0 01-.342-.304l-.17-.154c-.83-.752-1.636-1.548-2.3-2.445a7.959 7.959 0 01-.344-.513.082.082 0 01-.05-.018l-.184-.138c-2.03-1.508-5.42-3.474-7.398-.97-.63.799-.953 1.815-1.22 2.795l-.47 1.755c-.305 1.145-.591 2.297-.758 3.469-.38 2.625-.189 5.651 1.62 7.755.723.842 1.719 1.443 2.83 1.6.62.086 1.232-.02 1.847-.097.625-.078 1.226.048 1.851-.012.994-.098 1.428 1.09 1.057 1.836-.201.4-.437.746-.705 1.04.215.185.421.385.62.595.586.188 1.113.592 1.507 1.125.319.43.484.9.512 1.393.035.123.065.248.093.376l.538.872c.118.191.236.38.355.565a27.31 27.31 0 004.78 5.696c1.818 1.654 3.792 3.134 5.5 4.908l.202.21c1.593 1.676 3.272 3.705 2.649 6.142-.16.626-1.037 1.077-1.608.654-1.84-1.363-2.765-3.522-4.325-5.175-1.606-1.704-3.385-3.234-4.995-4.933a19.469 19.469 0 01-3.63-5.418c-.362.399-.889.682-1.619.792-1.254.188-2.424-.546-2.97-1.63a9.58 9.58 0 01-1.072.405c-1.901.581-3.098-1.53-2.38-3.091.383-.837.862-1.563 1.457-2.174-1.86-.256-3.75-1.215-4.973-2.412-3.065-3.009-3.486-7.53-2.797-11.55a30.323 30.323 0 011.82-6.29c.142-.348.295-.7.463-1.045a.325.325 0 01-.248-.12c-.555-.757-1.23-1.375-1.64-2.222-.38-.776-.801-1.563-1.1-2.372-.614-1.656-.915-3.524-1.116-5.275-.414-3.585-.254-7.147.296-10.709.936-6.067 3.196-11.872 6.525-16.967a2.9 2.9 0 01-.517-.346l-.08-.07-.13-.116c-.95-.859-.868-2.468 0-3.337l.274-.275a7.232 7.232 0 011.46-1.148 2.404 2.404 0 01-.19-1.873c.712-2.434 4.22-2.348 6.442-1.286a40.113 40.113 0 018.143-5.635c7.04-3.667 15-6.225 22.772-7.788zm-36.39 64.1c1.315-.428 3.061.472 4.243 1.013 1.497.686 2.772 1.7 4.006 2.772.615.537.725 1.413.572 2.162-.015.075-.03.153-.048.23-.163.8-1.056 1.428-1.846 1.406-1.653-.045-2.441-1.47-3.377-2.678-.11.196-.248.376-.419.511l-.115.09c-.389.296-.817.532-1.33.509a2.475 2.475 0 01-1.034-.278c-.802-.424-1.156-1.46-.938-2.305.136-.53.447-.947.853-1.235l-.151-.103c-.325-.225-.62-.463-.85-.813l-.053-.083h.02a.812.812 0 01.467-1.197z"/><path class="fill-current" d="M126.993 93.029a10.212 10.212 0 01-4.291-3.297c-.383-.509-.482-1.046-.402-1.538.09-.552.418-1.053.865-1.39.447-.336 1.008-.502 1.55-.418.47.074.939.331 1.31.865l.077.107a6.76 6.76 0 002.478 2.075 5.59 5.59 0 003.066.539c2.063-.233 3.485-1.347 4.997-2.86.187-.19.374-.388.563-.588a.885.885 0 01.467-.36c.204-.067.434-.063.645.01.203.07.385.205.507.384.116.17.181.38.16.621-.138 1.568-.96 2.967-2.125 4.066-1.296 1.22-3.012 2.064-4.629 2.36-1.78.326-3.595.093-5.238-.576zm6.078-24.188c1.895 1.15 4.781 3.831 2.743 6.682-2.399 2.513-5.852-.369-7.555-1.672-1.578-1.01-3.351 1.588-1.887 2.767 12.3 9.092 17.29-7.476 7.658-9.128-1.061-.182-1.455.996-.959 1.351zm-22.04-10.575c.21-2.595 4.167-3.184 4.56-.617.353 2.3-.062 4.412-1.1 6.483-.99 1.977-3.482 1.055-3.67-.746-.253-2.415.08-3.507.21-5.12zm30.122-1.149c.552-.721 1.348-1.214 2.302-.935 2.982.87 2.103 5.096 1.056 7.153-.569 1.117-2.408 1.4-3.24.417-1.354-1.604-2.003-4.808-.28-6.388.046-.081.098-.164.162-.247zm-26.704-10.203l.471-.082c1.457-.251 3.27-.493 4.3.676.547.62.735 1.773 0 2.367-1.293 1.045-2.722.64-4.27.728a17.017 17.017 0 00-3.733.635c-2.698.77-4.896 2.175-7.2 3.718-.302.203-.61-.183-.466-.466 1.33-2.6 3.907-4.737 6.488-6.04 1.378-.694 2.886-1.271 4.41-1.536zm23.986-1.165l.36.074c3.923.819 9.02 2.454 10.878 6.302.071.544-.004.66-.065.737l-.02.025c-.05.065-.09.155-.326.229a9.15 9.15 0 01-.199-.05c-.851-.223-1.525-.53-2.177-.848l-.708-.348c-.82-.402-1.648-.789-2.525-1.075a29.786 29.786 0 00-5.753-1.268c-.424-.05-.832-.193-1.154-.437a1.73 1.73 0 01-.646-.982c-.138-.553-.098-.972.2-1.471.223-.375.543-.635.91-.784a2.14 2.14 0 011.225-.104z"/><g class="fill-current"><path d="M110.72 94.598c2.032-4.75 6.465-8.243 11.57-9.52 3.747-.934 7.68-.905 11.502-.533 2.002.193 4.149.35 6.035 1.093 1.611.634 2.924 1.833 3.911 3.24 1.175 1.667 1.975 3.575 2.536 5.531.08.278.155.559.224.84-.244 1.476-.762 2.732-2.13 3.66-1.337.906-2.93 1.276-4.52 1.408a7.11 7.11 0 01-.444-.23c-2.476-1.416-4.219-4.76-7.344-4.308-2.79.405-4.625 3.909-6.284 5.963-5.324.62-10.644-.978-14.976-4.017a8.802 8.802 0 01-.08-3.127m39.397-3.604a20.478 20.478 0 00-1.598-3.438 19.576 19.576 0 00-9.16-8.11c-9.062-3.874-20.788-1.143-28.107 5.211-2.5 2.172-5.027 5.364-5.792 8.798a1.28 1.28 0 00-.62.33c-5.288-3.323-10.734-6.521-14.994-11.129-3.095-3.347-5.247-7.309-6.565-11.662-.107-.359-.686-.306-.669.09l.015.278c-.055-.17-.315-.082-.335.083-.71 5.288-1.596 10.895-.78 16.211.489 3.173 1.932 5.495 3.861 8.002 2.067 2.688 4.408 5.188 6.8 7.586 1.519 1.522 3.105 3.277 4.964 4.393 2.162 1.296 4.615 2.282 6.922 3.282a90.064 90.064 0 007.158 2.781c4.853 1.64 9.87 2.773 14.973 3.27 4.087.396 8.757.828 12.673-.707 3.001-1.176 5.424-3.302 7.346-5.86 2.092-2.786 3.746-5.96 4.66-9.306.95-3.476-.552-9.543-.752-10.103"/></g></g></svg>
