<svg xmlns="http://www.w3.org/2000/svg" class="keymap" style="font-family:SFMono-Regular,Consolas,Liberation Mono,Menlo,monospace;font-size:14px;font-kerning:normal;text-rendering:optimizeLegibility;fill:#100f0f" viewBox="0 0 906 1518"><style><![CDATA[rect.key,text.label{fill:#100f0f;stroke:#fffcf0;stroke-width:1}rect.held{fill:#d14d41}text{dominant-baseline:middle;fill:#fffcf0}text.label{font-weight:700;text-anchor:start;stroke:#fff;stroke-width:2;paint-order:stroke}text,text.hold{text-anchor:middle}text.hold{font-size:11px;dominant-baseline:auto}text.hold,text.trans{fill:#fffcf0}]]></style><g class="layer-base"><text y="28" class="label" transform="translate(30)">base:</text><g class="key keypos-0" transform="rotate(-10 1017.34 -504.148)"><rect width="55" height="52" x="-28" y="-26" class="key" rx="6" ry="6"/><text class="key tap">Q</text></g><g class="key keypos-1" transform="rotate(-4 1774.539 -2375.082)"><rect width="55" height="52" x="-28" y="-26" class="key" rx="6" ry="6"/><text class="key tap">W</text></g><g class="key keypos-2" transform="translate(237 84)"><rect width="55" height="52" x="-28" y="-26" class="key" rx="6" ry="6"/><text class="key tap">E</text></g><g class="key keypos-3" transform="translate(297 112)"><rect width="55" height="52" x="-28" y="-26" class="key" rx="6" ry="6"/><text class="key tap">R</text></g><g class="key keypos-4" transform="translate(356 121)"><rect width="55" height="52" x="-28" y="-26" class="key" rx="6" ry="6"/><text class="key tap">T</text></g><g class="key keypos-5" transform="translate(546 121)"><rect width="55" height="52" x="-28" y="-26" class="key" rx="6" ry="6"/><text class="key tap">Y</text></g><g class="key keypos-6" transform="translate(605 112)"><rect width="55" height="52" x="-28" y="-26" class="key" rx="6" ry="6"/><text class="key tap">U</text></g><g class="key keypos-7" transform="translate(664 84)"><rect width="55" height="52" x="-28" y="-26" class="key" rx="6" ry="6"/><text class="key tap">I</text></g><g class="key keypos-8" transform="rotate(4 -1323.539 10539.869)"><rect width="55" height="52" x="-28" y="-26" class="key" rx="6" ry="6"/><text class="key tap">O</text></g><g class="key keypos-9" transform="rotate(10 -566.34 4650.806)"><rect width="55" height="52" x="-28" y="-26" class="key" rx="6" ry="6"/><text class="key tap">P</text></g><g class="key keypos-10" transform="rotate(-10 1336.666 -533.798)"><rect width="55" height="52" x="-28" y="-26" class="key" rx="6" ry="6"/><text class="key tap">
<tspan x="0" dy="-.6em">⇧</tspan><tspan x="0" dy="1.2em">A</tspan>
</text></g><g class="key keypos-11" transform="rotate(-4 2577.854 -2390.036)"><rect width="55" height="52" x="-28" y="-26" class="key" rx="6" ry="6"/><text class="key tap">
<tspan x="0" dy="-.6em">⌥</tspan><tspan x="0" dy="1.2em">S</tspan>
</text></g><g class="key keypos-12" transform="translate(237 140)"><rect width="55" height="52" x="-28" y="-26" class="key" rx="6" ry="6"/><text class="key tap">
<tspan x="0" dy="-.6em">⌃</tspan><tspan x="0" dy="1.2em">D</tspan>
</text></g><g class="key keypos-13" transform="translate(297 168)"><rect width="55" height="52" x="-28" y="-26" class="key" rx="6" ry="6"/><text class="key tap">
<tspan x="0" dy="-.6em">⌘</tspan><tspan x="0" dy="1.2em">F</tspan>
</text></g><g class="key keypos-14" transform="translate(356 177)"><rect width="55" height="52" x="-28" y="-26" class="key" rx="6" ry="6"/><text class="key tap">G</text></g><g class="key keypos-15" transform="translate(546 177)"><rect width="55" height="52" x="-28" y="-26" class="key" rx="6" ry="6"/><text class="key tap">H</text></g><g class="key keypos-16" transform="translate(605 168)"><rect width="55" height="52" x="-28" y="-26" class="key" rx="6" ry="6"/><text class="key tap">
<tspan x="0" dy="-.6em">⌘</tspan><tspan x="0" dy="1.2em">J</tspan>
</text></g><g class="key keypos-17" transform="translate(664 140)"><rect width="55" height="52" x="-28" y="-26" class="key" rx="6" ry="6"/><text class="key tap">
<tspan x="0" dy="-.6em">⌃</tspan><tspan x="0" dy="1.2em">K</tspan>
</text></g><g class="key keypos-18" transform="rotate(4 -2127.354 10510.596)"><rect width="55" height="52" x="-28" y="-26" class="key" rx="6" ry="6"/><text class="key tap">
<tspan x="0" dy="-.6em">⌥</tspan><tspan x="0" dy="1.2em">L</tspan>
</text></g><g class="key keypos-19" transform="rotate(10 -885.666 4621.156)"><rect width="55" height="52" x="-28" y="-26" class="key" rx="6" ry="6"/><text class="key tap">
<tspan x="0" dy="-.6em">⇧</tspan><tspan x="0" dy="1.2em">&apos;</tspan>
</text></g><g class="key keypos-20" transform="rotate(-10 1544.482 -210.402)"><rect width="55" height="52" x="-28" y="-26" class="key" rx="6" ry="6"/><text class="key tap">ESC</text></g><g class="key keypos-21" transform="rotate(-10 1655.992 -563.448)"><rect width="55" height="52" x="-28" y="-26" class="key" rx="6" ry="6"/><text class="key tap">Z</text></g><g class="key keypos-22" transform="rotate(-4 3381.67 -2419.308)"><rect width="55" height="52" x="-28" y="-26" class="key" rx="6" ry="6"/><text class="key tap">X</text></g><g class="key keypos-23" transform="translate(237 196)"><rect width="55" height="52" x="-28" y="-26" class="key" rx="6" ry="6"/><text class="key tap">C</text></g><g class="key keypos-24" transform="translate(297 224)"><rect width="55" height="52" x="-28" y="-26" class="key" rx="6" ry="6"/><text class="key tap">V</text></g><g class="key keypos-25" transform="translate(356 233)"><rect width="55" height="52" x="-28" y="-26" class="key" rx="6" ry="6"/><text class="key tap">B</text></g><g class="key keypos-26" transform="translate(546 233)"><rect width="55" height="52" x="-28" y="-26" class="key" rx="6" ry="6"/><text class="key tap">N</text></g><g class="key keypos-27" transform="translate(605 224)"><rect width="55" height="52" x="-28" y="-26" class="key" rx="6" ry="6"/><text class="key tap">M</text></g><g class="key keypos-28" transform="translate(664 196)"><rect width="55" height="52" x="-28" y="-26" class="key" rx="6" ry="6"/><text class="key tap">,</text></g><g class="key keypos-29" transform="rotate(4 -2931.17 10481.324)"><rect width="55" height="52" x="-28" y="-26" class="key" rx="6" ry="6"/><text class="key tap">.</text></g><g class="key keypos-30" transform="rotate(10 -1204.992 4591.505)"><rect width="55" height="52" x="-28" y="-26" class="key" rx="6" ry="6"/><text class="key tap">/</text></g><g class="key keypos-31" transform="rotate(10 -1093.482 4944.552)"><rect width="55" height="52" x="-28" y="-26" class="key" rx="6" ry="6"/><text class="key tap">~</text></g><g class="key keypos-32" transform="translate(280 292)"><rect width="55" height="52" x="-28" y="-26" class="key" rx="6" ry="6"/><text class="key tap">⌘</text></g><g class="key keypos-33" transform="rotate(15 -970.161 1464.565)"><rect width="55" height="52" x="-28" y="-26" class="key" rx="6" ry="6"/><text class="key tap">⇥</text><text y="24" class="key hold">sym</text></g><g class="key keypos-34" transform="rotate(30 -404.824 922.472)"><rect width="55" height="52" x="-28" y="-26" class="key" rx="6" ry="6"/><text class="key tap">↩︎</text></g><g class="key keypos-35" transform="rotate(-30 855.824 -760.683)"><rect width="55" height="52" x="-28" y="-26" class="key" rx="6" ry="6"/><text class="key tap">␣</text></g><g class="key keypos-36" transform="rotate(-15 1421.161 -1961.12)"><rect width="55" height="52" x="-28" y="-26" class="key" rx="6" ry="6"/><text class="key tap">⌫</text><text y="24" class="key hold">nav</text></g><g class="key keypos-37" transform="translate(622 292)"><rect width="55" height="52" x="-28" y="-26" class="key" rx="6" ry="6"/><text class="key tap">HYPER</text></g></g><g class="layer-nav"><text y="28" class="label" transform="translate(30 366)">nav:</text><g class="key trans keypos-0" transform="rotate(-10 3109.039 -321.148)"><rect width="55" height="52" x="-28" y="-26" class="key trans" rx="6" ry="6"/><text class="key trans tap">▽</text></g><g class="key keypos-1" transform="rotate(-4 7014.973 -2192.082)"><rect width="55" height="52" x="-28" y="-26" class="key" rx="6" ry="6"/><text class="key tap">1</text></g><g class="key keypos-2" transform="translate(237 450)"><rect width="55" height="52" x="-28" y="-26" class="key" rx="6" ry="6"/><text class="key tap">2</text></g><g class="key keypos-3" transform="translate(297 478)"><rect width="55" height="52" x="-28" y="-26" class="key" rx="6" ry="6"/><text class="key tap">3</text></g><g class="key trans keypos-4" transform="translate(356 487)"><rect width="55" height="52" x="-28" y="-26" class="key trans" rx="6" ry="6"/><text class="key trans tap">▽</text></g><g class="key trans keypos-5" transform="translate(546 487)"><rect width="55" height="52" x="-28" y="-26" class="key trans" rx="6" ry="6"/><text class="key trans tap">▽</text></g><g class="key trans keypos-6" transform="translate(605 478)"><rect width="55" height="52" x="-28" y="-26" class="key trans" rx="6" ry="6"/><text class="key trans tap">▽</text></g><g class="key trans keypos-7" transform="translate(664 450)"><rect width="55" height="52" x="-28" y="-26" class="key trans" rx="6" ry="6"/><text class="key trans tap">▽</text></g><g class="key trans keypos-8" transform="rotate(4 -6563.973 10722.869)"><rect width="55" height="52" x="-28" y="-26" class="key trans" rx="6" ry="6"/><text class="key trans tap">▽</text></g><g class="key keypos-9" transform="rotate(10 -2658.039 4833.806)"><rect width="55" height="52" x="-28" y="-26" class="key" rx="6" ry="6"/><text class="key tap">:</text></g><g class="key trans keypos-10" transform="rotate(-10 3428.365 -350.798)"><rect width="55" height="52" x="-28" y="-26" class="key trans" rx="6" ry="6"/><text class="key trans tap">▽</text></g><g class="key keypos-11" transform="rotate(-4 7818.288 -2207.036)"><rect width="55" height="52" x="-28" y="-26" class="key" rx="6" ry="6"/><text class="key tap">4</text></g><g class="key keypos-12" transform="translate(237 506)"><rect width="55" height="52" x="-28" y="-26" class="key" rx="6" ry="6"/><text class="key tap">5</text></g><g class="key keypos-13" transform="translate(297 534)"><rect width="55" height="52" x="-28" y="-26" class="key" rx="6" ry="6"/><text class="key tap">6</text></g><g class="key trans keypos-14" transform="translate(356 543)"><rect width="55" height="52" x="-28" y="-26" class="key trans" rx="6" ry="6"/><text class="key trans tap">▽</text></g><g class="key keypos-15" transform="translate(546 543)"><rect width="55" height="52" x="-28" y="-26" class="key" rx="6" ry="6"/><text class="key tap">←</text></g><g class="key keypos-16" transform="translate(605 534)"><rect width="55" height="52" x="-28" y="-26" class="key" rx="6" ry="6"/><text class="key tap">↓</text></g><g class="key keypos-17" transform="translate(664 506)"><rect width="55" height="52" x="-28" y="-26" class="key" rx="6" ry="6"/><text class="key tap">↑</text></g><g class="key keypos-18" transform="rotate(4 -7367.788 10693.596)"><rect width="55" height="52" x="-28" y="-26" class="key" rx="6" ry="6"/><text class="key tap">→</text></g><g class="key keypos-19" transform="rotate(10 -2977.365 4804.156)"><rect width="55" height="52" x="-28" y="-26" class="key" rx="6" ry="6"/><text class="key tap">;</text></g><g class="key trans keypos-20" transform="rotate(-10 3636.182 -27.402)"><rect width="55" height="52" x="-28" y="-26" class="key trans" rx="6" ry="6"/><text class="key trans tap">▽</text></g><g class="key trans keypos-21" transform="rotate(-10 3747.692 -380.448)"><rect width="55" height="52" x="-28" y="-26" class="key trans" rx="6" ry="6"/><text class="key trans tap">▽</text></g><g class="key keypos-22" transform="rotate(-4 8622.103 -2236.308)"><rect width="55" height="52" x="-28" y="-26" class="key" rx="6" ry="6"/><text class="key tap">7</text></g><g class="key keypos-23" transform="translate(237 562)"><rect width="55" height="52" x="-28" y="-26" class="key" rx="6" ry="6"/><text class="key tap">8</text></g><g class="key keypos-24" transform="translate(297 590)"><rect width="55" height="52" x="-28" y="-26" class="key" rx="6" ry="6"/><text class="key tap">9</text></g><g class="key keypos-25" transform="translate(356 599)"><rect width="55" height="52" x="-28" y="-26" class="key" rx="6" ry="6"/><text class="key tap">0</text></g><g class="key trans keypos-26" transform="translate(546 599)"><rect width="55" height="52" x="-28" y="-26" class="key trans" rx="6" ry="6"/><text class="key trans tap">▽</text></g><g class="key trans keypos-27" transform="translate(605 590)"><rect width="55" height="52" x="-28" y="-26" class="key trans" rx="6" ry="6"/><text class="key trans tap">▽</text></g><g class="key trans keypos-28" transform="translate(664 562)"><rect width="55" height="52" x="-28" y="-26" class="key trans" rx="6" ry="6"/><text class="key trans tap">▽</text></g><g class="key trans keypos-29" transform="rotate(4 -8171.603 10664.324)"><rect width="55" height="52" x="-28" y="-26" class="key trans" rx="6" ry="6"/><text class="key trans tap">▽</text></g><g class="key trans keypos-30" transform="rotate(10 -3296.692 4774.505)"><rect width="55" height="52" x="-28" y="-26" class="key trans" rx="6" ry="6"/><text class="key trans tap">▽</text></g><g class="key trans keypos-31" transform="rotate(10 -3185.182 5127.552)"><rect width="55" height="52" x="-28" y="-26" class="key trans" rx="6" ry="6"/><text class="key trans tap">▽</text></g><g class="key trans keypos-32" transform="translate(280 658)"><rect width="55" height="52" x="-28" y="-26" class="key trans" rx="6" ry="6"/><text class="key trans tap">▽</text></g><g class="key keypos-33" transform="rotate(15 -2360.184 1647.565)"><rect width="55" height="52" x="-28" y="-26" class="key" rx="6" ry="6"/><text class="key tap">adjust</text></g><g class="key trans keypos-34" transform="rotate(30 -1087.79 1105.472)"><rect width="55" height="52" x="-28" y="-26" class="key trans" rx="6" ry="6"/><text class="key trans tap">▽</text></g><g class="key trans keypos-35" transform="rotate(-30 1538.79 -577.683)"><rect width="55" height="52" x="-28" y="-26" class="key trans" rx="6" ry="6"/><text class="key trans tap">▽</text></g><g class="key held keypos-36" transform="rotate(-15 2811.184 -1778.12)"><rect width="55" height="52" x="-28" y="-26" class="key held" rx="6" ry="6"/></g><g class="key trans keypos-37" transform="translate(622 658)"><rect width="55" height="52" x="-28" y="-26" class="key trans" rx="6" ry="6"/><text class="key trans tap">▽</text></g></g><g class="layer-sym"><text y="28" class="label" transform="translate(30 731)">sym:</text><g class="key trans keypos-0" transform="rotate(-10 5195.024 -138.648)"><rect width="55" height="52" x="-28" y="-26" class="key trans" rx="6" ry="6"/><text class="key trans tap">▽</text></g><g class="key keypos-1" transform="rotate(-4 12241.09 -2009.582)"><rect width="55" height="52" x="-28" y="-26" class="key" rx="6" ry="6"/><text class="key tap">[</text></g><g class="key keypos-2" transform="translate(237 815)"><rect width="55" height="52" x="-28" y="-26" class="key" rx="6" ry="6"/><text class="key tap">{</text></g><g class="key keypos-3" transform="translate(297 843)"><rect width="55" height="52" x="-28" y="-26" class="key" rx="6" ry="6"/><text class="key tap">}</text></g><g class="key trans keypos-4" transform="translate(356 852)"><rect width="55" height="52" x="-28" y="-26" class="key trans" rx="6" ry="6"/><text class="key trans tap">▽</text></g><g class="key keypos-5" transform="translate(546 852)"><rect width="55" height="52" x="-28" y="-26" class="key" rx="6" ry="6"/><text class="key tap">^</text></g><g class="key keypos-6" transform="translate(605 843)"><rect width="55" height="52" x="-28" y="-26" class="key" rx="6" ry="6"/><text class="key tap">(</text></g><g class="key keypos-7" transform="translate(664 815)"><rect width="55" height="52" x="-28" y="-26" class="key" rx="6" ry="6"/><text class="key tap">)</text></g><g class="key keypos-8" transform="rotate(4 -11790.09 10905.369)"><rect width="55" height="52" x="-28" y="-26" class="key" rx="6" ry="6"/><text class="key tap">]</text></g><g class="key keypos-9" transform="rotate(10 -4744.024 5016.306)"><rect width="55" height="52" x="-28" y="-26" class="key" rx="6" ry="6"/><text class="key tap">~</text></g><g class="key keypos-10" transform="rotate(-10 5514.35 -168.298)"><rect width="55" height="52" x="-28" y="-26" class="key" rx="6" ry="6"/><text class="key tap">!</text></g><g class="key keypos-11" transform="rotate(-4 13044.405 -2024.536)"><rect width="55" height="52" x="-28" y="-26" class="key" rx="6" ry="6"/><text class="key tap">@</text></g><g class="key keypos-12" transform="translate(237 871)"><rect width="55" height="52" x="-28" y="-26" class="key" rx="6" ry="6"/><text class="key tap">#</text></g><g class="key keypos-13" transform="translate(297 899)"><rect width="55" height="52" x="-28" y="-26" class="key" rx="6" ry="6"/><text class="key tap">$</text></g><g class="key keypos-14" transform="translate(356 908)"><rect width="55" height="52" x="-28" y="-26" class="key" rx="6" ry="6"/><text class="key tap">%</text></g><g class="key keypos-15" transform="translate(546 908)"><rect width="55" height="52" x="-28" y="-26" class="key" rx="6" ry="6"/><text class="key tap">*</text></g><g class="key keypos-16" transform="translate(605 899)"><rect width="55" height="52" x="-28" y="-26" class="key" rx="6" ry="6"/><text class="key tap">-</text></g><g class="key keypos-17" transform="translate(664 871)"><rect width="55" height="52" x="-28" y="-26" class="key" rx="6" ry="6"/><text class="key tap">=</text></g><g class="key keypos-18" transform="rotate(4 -12593.905 10876.096)"><rect width="55" height="52" x="-28" y="-26" class="key" rx="6" ry="6"/><text class="key tap">\</text></g><g class="key keypos-19" transform="rotate(10 -5063.35 4986.656)"><rect width="55" height="52" x="-28" y="-26" class="key" rx="6" ry="6"/><text class="key tap">`</text></g><g class="key trans keypos-20" transform="rotate(-10 5722.166 155.098)"><rect width="55" height="52" x="-28" y="-26" class="key trans" rx="6" ry="6"/><text class="key trans tap">▽</text></g><g class="key trans keypos-21" transform="rotate(-10 5833.676 -197.948)"><rect width="55" height="52" x="-28" y="-26" class="key trans" rx="6" ry="6"/><text class="key trans tap">▽</text></g><g class="key trans keypos-22" transform="rotate(-4 13848.22 -2053.808)"><rect width="55" height="52" x="-28" y="-26" class="key trans" rx="6" ry="6"/><text class="key trans tap">▽</text></g><g class="key trans keypos-23" transform="translate(237 927)"><rect width="55" height="52" x="-28" y="-26" class="key trans" rx="6" ry="6"/><text class="key trans tap">▽</text></g><g class="key trans keypos-24" transform="translate(297 955)"><rect width="55" height="52" x="-28" y="-26" class="key trans" rx="6" ry="6"/><text class="key trans tap">▽</text></g><g class="key trans keypos-25" transform="translate(356 964)"><rect width="55" height="52" x="-28" y="-26" class="key trans" rx="6" ry="6"/><text class="key trans tap">▽</text></g><g class="key keypos-26" transform="translate(546 964)"><rect width="55" height="52" x="-28" y="-26" class="key" rx="6" ry="6"/><text class="key tap">&amp;</text></g><g class="key keypos-27" transform="translate(605 955)"><rect width="55" height="52" x="-28" y="-26" class="key" rx="6" ry="6"/><text class="key tap">_</text></g><g class="key keypos-28" transform="translate(664 927)"><rect width="55" height="52" x="-28" y="-26" class="key" rx="6" ry="6"/><text class="key tap">+</text></g><g class="key keypos-29" transform="rotate(4 -13397.72 10846.824)"><rect width="55" height="52" x="-28" y="-26" class="key" rx="6" ry="6"/><text class="key tap">|</text></g><g class="key trans keypos-30" transform="rotate(10 -5382.676 4957.005)"><rect width="55" height="52" x="-28" y="-26" class="key trans" rx="6" ry="6"/><text class="key trans tap">▽</text></g><g class="key trans keypos-31" transform="rotate(10 -5271.166 5310.052)"><rect width="55" height="52" x="-28" y="-26" class="key trans" rx="6" ry="6"/><text class="key trans tap">▽</text></g><g class="key trans keypos-32" transform="translate(280 1023)"><rect width="55" height="52" x="-28" y="-26" class="key trans" rx="6" ry="6"/><text class="key trans tap">▽</text></g><g class="key held keypos-33" transform="rotate(15 -3746.41 1830.065)"><rect width="55" height="52" x="-28" y="-26" class="key held" rx="6" ry="6"/></g><g class="key trans keypos-34" transform="rotate(30 -1768.889 1287.972)"><rect width="55" height="52" x="-28" y="-26" class="key trans" rx="6" ry="6"/><text class="key trans tap">▽</text></g><g class="key trans keypos-35" transform="rotate(-30 2219.889 -395.183)"><rect width="55" height="52" x="-28" y="-26" class="key trans" rx="6" ry="6"/><text class="key trans tap">▽</text></g><g class="key keypos-36" transform="rotate(-15 4197.41 -1595.62)"><rect width="55" height="52" x="-28" y="-26" class="key" rx="6" ry="6"/><text class="key tap">adjust</text></g><g class="key trans keypos-37" transform="translate(622 1023)"><rect width="55" height="52" x="-28" y="-26" class="key trans" rx="6" ry="6"/><text class="key trans tap">▽</text></g></g><g class="layer-adjust"><text y="28" class="label" transform="translate(30 1097)">adjust:</text><g class="key keypos-0" transform="rotate(-10 7286.723 44.352)"><rect width="55" height="52" x="-28" y="-26" class="key" rx="6" ry="6"/><text class="key tap">RESET</text></g><g class="key keypos-1" transform="rotate(-4 17481.524 -1826.582)"><rect width="55" height="52" x="-28" y="-26" class="key" rx="6" ry="6"/><text class="key tap">
<tspan x="0" dy="-.6em">BT</tspan><tspan x="0" dy="1.2em">CLR</tspan>
</text></g><g class="key keypos-2" transform="translate(237 1181)"><rect width="55" height="52" x="-28" y="-26" class="key" rx="6" ry="6"/><text class="key tap">
<tspan x="0" dy="-.6em">OUT</tspan><tspan x="0" dy="1.2em">TOG</tspan>
</text></g><g class="key keypos-3" transform="translate(297 1209)"><rect width="55" height="52" x="-28" y="-26" class="key" rx="6" ry="6"/><text class="key tap">
<tspan x="0" dy="-.6em">BRI</tspan><tspan x="0" dy="1.2em">DN</tspan>
</text></g><g class="key keypos-4" transform="translate(356 1218)"><rect width="55" height="52" x="-28" y="-26" class="key" rx="6" ry="6"/><text class="key tap">
<tspan x="0" dy="-.6em">BRI</tspan><tspan x="0" dy="1.2em">UP</tspan>
</text></g><g class="key trans keypos-5" transform="translate(546 1218)"><rect width="55" height="52" x="-28" y="-26" class="key trans" rx="6" ry="6"/><text class="key trans tap">▽</text></g><g class="key trans keypos-6" transform="translate(605 1209)"><rect width="55" height="52" x="-28" y="-26" class="key trans" rx="6" ry="6"/><text class="key trans tap">▽</text></g><g class="key trans keypos-7" transform="translate(664 1181)"><rect width="55" height="52" x="-28" y="-26" class="key trans" rx="6" ry="6"/><text class="key trans tap">▽</text></g><g class="key trans keypos-8" transform="rotate(4 -17030.524 11088.369)"><rect width="55" height="52" x="-28" y="-26" class="key trans" rx="6" ry="6"/><text class="key trans tap">▽</text></g><g class="key trans keypos-9" transform="rotate(10 -6835.723 5199.306)"><rect width="55" height="52" x="-28" y="-26" class="key trans" rx="6" ry="6"/><text class="key trans tap">▽</text></g><g class="key keypos-10" transform="rotate(-10 7606.05 14.702)"><rect width="55" height="52" x="-28" y="-26" class="key" rx="6" ry="6"/><text class="key tap">BOOT</text></g><g class="key keypos-11" transform="rotate(-4 18284.839 -1841.536)"><rect width="55" height="52" x="-28" y="-26" class="key" rx="6" ry="6"/><text class="key tap">
<tspan x="0" dy="-.6em">BT</tspan><tspan x="0" dy="1.2em">NXT</tspan>
</text></g><g class="key trans keypos-12" transform="translate(237 1237)"><rect width="55" height="52" x="-28" y="-26" class="key trans" rx="6" ry="6"/><text class="key trans tap">▽</text></g><g class="key trans keypos-13" transform="translate(297 1265)"><rect width="55" height="52" x="-28" y="-26" class="key trans" rx="6" ry="6"/><text class="key trans tap">▽</text></g><g class="key trans keypos-14" transform="translate(356 1274)"><rect width="55" height="52" x="-28" y="-26" class="key trans" rx="6" ry="6"/><text class="key trans tap">▽</text></g><g class="key trans keypos-15" transform="translate(546 1274)"><rect width="55" height="52" x="-28" y="-26" class="key trans" rx="6" ry="6"/><text class="key trans tap">▽</text></g><g class="key keypos-16" transform="translate(605 1265)"><rect width="55" height="52" x="-28" y="-26" class="key" rx="6" ry="6"/><text class="key tap">
<tspan x="0" dy="-.6em">VOL</tspan><tspan x="0" dy="1.2em">DN</tspan>
</text></g><g class="key keypos-17" transform="translate(664 1237)"><rect width="55" height="52" x="-28" y="-26" class="key" rx="6" ry="6"/><text class="key tap">MUTE</text></g><g class="key keypos-18" transform="rotate(4 -17834.339 11059.096)"><rect width="55" height="52" x="-28" y="-26" class="key" rx="6" ry="6"/><text class="key tap">
<tspan x="0" dy="-.6em">VOL</tspan><tspan x="0" dy="1.2em">UP</tspan>
</text></g><g class="key trans keypos-19" transform="rotate(10 -7155.05 5169.656)"><rect width="55" height="52" x="-28" y="-26" class="key trans" rx="6" ry="6"/><text class="key trans tap">▽</text></g><g class="key trans keypos-20" transform="rotate(-10 7813.866 338.098)"><rect width="55" height="52" x="-28" y="-26" class="key trans" rx="6" ry="6"/><text class="key trans tap">▽</text></g><g class="key trans keypos-21" transform="rotate(-10 7925.376 -14.948)"><rect width="55" height="52" x="-28" y="-26" class="key trans" rx="6" ry="6"/><text class="key trans tap">▽</text></g><g class="key keypos-22" transform="rotate(-4 19088.654 -1870.808)"><rect width="55" height="52" x="-28" y="-26" class="key" rx="6" ry="6"/><text class="key tap">
<tspan x="0" dy="-.6em">BT</tspan><tspan x="0" dy="1.2em">PRV</tspan>
</text></g><g class="key trans keypos-23" transform="translate(237 1293)"><rect width="55" height="52" x="-28" y="-26" class="key trans" rx="6" ry="6"/><text class="key trans tap">▽</text></g><g class="key trans keypos-24" transform="translate(297 1321)"><rect width="55" height="52" x="-28" y="-26" class="key trans" rx="6" ry="6"/><text class="key trans tap">▽</text></g><g class="key trans keypos-25" transform="translate(356 1330)"><rect width="55" height="52" x="-28" y="-26" class="key trans" rx="6" ry="6"/><text class="key trans tap">▽</text></g><g class="key trans keypos-26" transform="translate(546 1330)"><rect width="55" height="52" x="-28" y="-26" class="key trans" rx="6" ry="6"/><text class="key trans tap">▽</text></g><g class="key keypos-27" transform="translate(605 1321)"><rect width="55" height="52" x="-28" y="-26" class="key" rx="6" ry="6"/><text class="key tap">PREV</text></g><g class="key keypos-28" transform="translate(664 1293)"><rect width="55" height="52" x="-28" y="-26" class="key" rx="6" ry="6"/><text class="key tap">PP</text></g><g class="key keypos-29" transform="rotate(4 -18638.154 11029.824)"><rect width="55" height="52" x="-28" y="-26" class="key" rx="6" ry="6"/><text class="key tap">NEXT</text></g><g class="key trans keypos-30" transform="rotate(10 -7474.376 5140.005)"><rect width="55" height="52" x="-28" y="-26" class="key trans" rx="6" ry="6"/><text class="key trans tap">▽</text></g><g class="key trans keypos-31" transform="rotate(10 -7362.866 5493.052)"><rect width="55" height="52" x="-28" y="-26" class="key trans" rx="6" ry="6"/><text class="key trans tap">▽</text></g><g class="key trans keypos-32" transform="translate(280 1389)"><rect width="55" height="52" x="-28" y="-26" class="key trans" rx="6" ry="6"/><text class="key trans tap">▽</text></g><g class="key held keypos-33" transform="rotate(15 -5136.432 2013.065)"><rect width="55" height="52" x="-28" y="-26" class="key held" rx="6" ry="6"/></g><g class="key trans keypos-34" transform="rotate(30 -2451.854 1470.972)"><rect width="55" height="52" x="-28" y="-26" class="key trans" rx="6" ry="6"/><text class="key trans tap">▽</text></g><g class="key trans keypos-35" transform="rotate(-30 2902.854 -212.183)"><rect width="55" height="52" x="-28" y="-26" class="key trans" rx="6" ry="6"/><text class="key trans tap">▽</text></g><g class="key held keypos-36" transform="rotate(-15 5587.432 -1412.62)"><rect width="55" height="52" x="-28" y="-26" class="key held" rx="6" ry="6"/></g><g class="key trans keypos-37" transform="translate(622 1389)"><rect width="55" height="52" x="-28" y="-26" class="key trans" rx="6" ry="6"/><text class="key trans tap">▽</text></g></g></svg>